<mxfile host="app.diagrams.net" modified="2024-01-01T11:43:29.480Z" agent="Mozilla/5.0 (Windows NT 10.0; Win64; x64) AppleWebKit/537.36 (KHTML, like Gecko) Chrome/120.0.0.0 Safari/537.36" version="22.1.16" etag="4prZTsH_MmfkUYacNV83" type="github">
  <diagram name="Страница — 1" id="3lEWwQ-A2mNCP0Lm-2mC">
    <mxGraphModel>
      <root>
        <mxCell id="0" />
        <mxCell id="1" parent="0" />
      </root>
    </mxGraphModel>
  </diagram>
</mxfile>
